<svg xmlns="http://www.w3.org/2000/svg" xmlns:xlink="http://www.w3.org/1999/xlink" width="24" height="24" version="1.1" viewBox="0 0 24 24"><title>sphere</title><desc>Created with Sketch.</desc><defs><rect id="path-1" width="2" height="2" x="11" y="0"/><mask id="mask-2" width="2" height="2" x="0" y="0" fill="#fff" maskContentUnits="userSpaceOnUse" maskUnits="objectBoundingBox"><use xlink:href="#path-1"/></mask><rect id="path-3" width="2" height="2" x="11" y="22"/><mask id="mask-4" width="2" height="2" x="0" y="0" fill="#fff" maskContentUnits="userSpaceOnUse" maskUnits="objectBoundingBox"><use xlink:href="#path-3"/></mask><rect id="path-5" width="2" height="2" x="22" y="11"/><mask id="mask-6" width="2" height="2" x="0" y="0" fill="#fff" maskContentUnits="userSpaceOnUse" maskUnits="objectBoundingBox"><use xlink:href="#path-5"/></mask><rect id="path-7" width="2" height="2" x="19" y="4"/><mask id="mask-8" width="2" height="2" x="0" y="0" fill="#fff" maskContentUnits="userSpaceOnUse" maskUnits="objectBoundingBox"><use xlink:href="#path-7"/></mask><rect id="path-9" width="2" height="2" x="11" y="7"/><mask id="mask-10" width="2" height="2" x="0" y="0" fill="#fff" maskContentUnits="userSpaceOnUse" maskUnits="objectBoundingBox"><use xlink:href="#path-9"/></mask><rect id="path-11" width="2" height="2" x="11" y="15"/><mask id="mask-12" width="2" height="2" x="0" y="0" fill="#fff" maskContentUnits="userSpaceOnUse" maskUnits="objectBoundingBox"><use xlink:href="#path-11"/></mask><rect id="path-13" width="2" height="2" x="7" y="11"/><mask id="mask-14" width="2" height="2" x="0" y="0" fill="#fff" maskContentUnits="userSpaceOnUse" maskUnits="objectBoundingBox"><use xlink:href="#path-13"/></mask><rect id="path-15" width="2" height="2" x="15" y="11"/><mask id="mask-16" width="2" height="2" x="0" y="0" fill="#fff" maskContentUnits="userSpaceOnUse" maskUnits="objectBoundingBox"><use xlink:href="#path-15"/></mask><rect id="path-17" width="2" height="2" x="19" y="18"/><mask id="mask-18" width="2" height="2" x="0" y="0" fill="#fff" maskContentUnits="userSpaceOnUse" maskUnits="objectBoundingBox"><use xlink:href="#path-17"/></mask><rect id="path-19" width="2" height="2" x="3" y="4"/><mask id="mask-20" width="2" height="2" x="0" y="0" fill="#fff" maskContentUnits="userSpaceOnUse" maskUnits="objectBoundingBox"><use xlink:href="#path-19"/></mask><rect id="path-21" width="2" height="2" x="3" y="18"/><mask id="mask-22" width="2" height="2" x="0" y="0" fill="#fff" maskContentUnits="userSpaceOnUse" maskUnits="objectBoundingBox"><use xlink:href="#path-21"/></mask><rect id="path-23" width="2" height="2" x="0" y="11"/><mask id="mask-24" width="2" height="2" x="0" y="0" fill="#fff" maskContentUnits="userSpaceOnUse" maskUnits="objectBoundingBox"><use xlink:href="#path-23"/></mask></defs><g id="Page-1" fill="none" fill-rule="evenodd" stroke="none" stroke-width="1"><g id="1" stroke="#000" stroke-width="2" transform="translate(-949.000000, -701.000000)"><g id="Sphere-View" transform="translate(852.000000, 688.000000)"><g id="sphere" transform="translate(97.000000, 13.000000)"><use id="Rectangle-2-Copy-45" mask="url(#mask-2)" xlink:href="#path-1"/><use id="Rectangle-2-Copy-49" mask="url(#mask-4)" xlink:href="#path-3"/><use id="Rectangle-2-Copy-45" mask="url(#mask-6)" transform="translate(23.000000, 12.000000) rotate(-540.000000) translate(-23.000000, -12.000000)" xlink:href="#path-5"/><use id="Rectangle-2-Copy-46" mask="url(#mask-8)" transform="translate(20.000000, 5.000000) rotate(-540.000000) translate(-20.000000, -5.000000)" xlink:href="#path-7"/><use id="Rectangle-2-Copy-51" mask="url(#mask-10)" transform="translate(12.000000, 8.000000) rotate(-540.000000) translate(-12.000000, -8.000000)" xlink:href="#path-9"/><use id="Rectangle-2-Copy-54" mask="url(#mask-12)" transform="translate(12.000000, 16.000000) rotate(-540.000000) translate(-12.000000, -16.000000)" xlink:href="#path-11"/><use id="Rectangle-2-Copy-52" mask="url(#mask-14)" transform="translate(8.000000, 12.000000) rotate(-540.000000) translate(-8.000000, -12.000000)" xlink:href="#path-13"/><use id="Rectangle-2-Copy-53" mask="url(#mask-16)" transform="translate(16.000000, 12.000000) rotate(-540.000000) translate(-16.000000, -12.000000)" xlink:href="#path-15"/><use id="Rectangle-2-Copy-48" mask="url(#mask-18)" transform="translate(20.000000, 19.000000) rotate(-540.000000) translate(-20.000000, -19.000000)" xlink:href="#path-17"/><use id="Rectangle-2-Copy-47" mask="url(#mask-20)" transform="translate(4.000000, 5.000000) rotate(-540.000000) translate(-4.000000, -5.000000)" xlink:href="#path-19"/><use id="Rectangle-2-Copy-50" mask="url(#mask-22)" transform="translate(4.000000, 19.000000) rotate(-540.000000) translate(-4.000000, -19.000000)" xlink:href="#path-21"/><use id="Rectangle-2-Copy-49" mask="url(#mask-24)" transform="translate(1.000000, 12.000000) rotate(-540.000000) translate(-1.000000, -12.000000)" xlink:href="#path-23"/></g></g></g></g></svg>